<svg width="153" height="123" viewBox="0 0 153 123" fill="none" xmlns="http://www.w3.org/2000/svg">
<path d="M87.0559 61.4578C87.0559 71.2323 83.1047 80.0935 76.7046 86.547C76.6522 86.6071 76.5958 86.6632 76.5435 86.7153C76.4831 86.7754 76.4267 86.8235 76.3662 86.8835L51.1406 111.973C55.2368 107.899 58.3542 102.843 60.0902 97.1828C60.215 96.7782 60.3359 96.3856 60.4446 95.973C61.2381 93.0247 61.661 89.924 61.661 86.7193C61.661 76.8607 57.6333 67.9314 51.1406 61.4618L0.362915 10.9509C0.403192 10.8908 0.447498 10.8588 0.499858 10.8147C6.98048 4.42521 15.8979 0.487366 25.7457 0.487366C27.2239 0.487366 28.6779 0.579502 30.1118 0.755764C38.276 1.72921 45.5984 5.44272 51.1325 10.9509H51.1406L76.3662 36.0401C76.4267 36.0922 76.4831 36.1483 76.5435 36.2004C76.5958 36.2604 76.6522 36.3165 76.7046 36.3686C83.1006 42.8182 87.0559 51.6793 87.0559 61.4578Z" fill="url(#paint0_linear_171_4689)"/>
<path d="M51.1443 61.4578C45.6102 66.962 38.2838 70.6755 30.1075 71.653C28.6776 71.8332 27.2236 71.9173 25.7455 71.9173C22.5353 71.9173 19.4179 71.4967 16.4454 70.7035C10.3958 69.1012 4.97442 65.9565 0.6285 61.7262C0.596278 61.6942 0.560029 61.6621 0.527807 61.6341C0.463363 61.57 0.411003 61.5179 0.354614 61.4538C0.447252 61.3537 0.551974 61.2535 0.652667 61.1574C4.99859 56.9391 10.4038 53.8065 16.4454 52.2041C19.4139 51.4109 22.5313 50.9903 25.7455 50.9903C27.2236 50.9903 28.6776 51.0744 30.1075 51.2547C38.2798 52.2402 45.6102 55.9577 51.1443 61.4578Z" fill="url(#paint1_linear_171_4689)"/>
<path d="M61.6606 86.7151C61.6606 89.9159 61.2377 93.0165 60.4402 95.9649C60.3315 96.3775 60.2147 96.7741 60.0898 97.1787C58.3539 102.835 55.2364 107.895 51.1442 111.969C45.6101 117.473 38.2837 121.186 30.1074 122.164C28.6775 122.344 27.2235 122.428 25.7453 122.428C15.9015 122.428 6.97609 118.486 0.491435 112.101C0.443102 112.061 0.406853 112.025 0.358521 111.969C0.559907 111.76 0.765321 111.564 0.966708 111.372L15.2289 97.1827L25.7453 86.7231L30.1074 82.3847L51.1442 61.4617C57.6369 67.9233 61.6606 76.8525 61.6606 86.7151Z" fill="url(#paint2_linear_171_4689)"/>
<path d="M152.712 10.9508L137.841 25.7408L127.321 36.2043L101.934 61.4538H101.926L76.7002 86.543C83.1002 80.0934 87.0514 71.2323 87.0514 61.4538C87.0514 51.6793 83.1002 42.8181 76.7002 36.3645C76.6478 36.3125 76.5914 36.2564 76.5391 36.1963L87.0514 25.7408L101.922 10.9508C108.427 4.48524 117.404 0.487305 127.317 0.487305C130.974 0.487305 134.502 1.03211 137.837 2.04962C143.524 3.78019 148.615 6.86877 152.712 10.9508Z" fill="url(#paint3_linear_171_4689)"/>
<defs>
<linearGradient id="paint0_linear_171_4689" x1="0.361143" y1="56.2275" x2="87.0546" y2="56.2275" gradientUnits="userSpaceOnUse">
<stop offset="0.1099" stop-color="#91D5EA"/>
<stop offset="0.3568" stop-color="#79BEBC"/>
<stop offset="0.9144" stop-color="#3E8349"/>
<stop offset="1" stop-color="#357A37"/>
</linearGradient>
<linearGradient id="paint1_linear_171_4689" x1="82.9938" y1="61.4582" x2="-34.3759" y2="61.4582" gradientUnits="userSpaceOnUse">
<stop offset="0.2655" stop-color="#2D897A"/>
<stop offset="0.8761" stop-color="#D9EFA4"/>
</linearGradient>
<linearGradient id="paint2_linear_171_4689" x1="13.2567" y1="125.006" x2="67.5199" y2="67.7864" gradientUnits="userSpaceOnUse">
<stop offset="0.0395" stop-color="#2A9476"/>
<stop offset="0.8761" stop-color="#195658"/>
</linearGradient>
<linearGradient id="paint3_linear_171_4689" x1="138.794" y1="-2.05547" x2="65.714" y2="76.296" gradientUnits="userSpaceOnUse">
<stop offset="0.2655" stop-color="#2D897A"/>
<stop offset="0.8761" stop-color="#D9EFA4"/>
</linearGradient>
</defs>
</svg>
